# xmcd CD database file
#
# Track frame offsets:
#	150
#	22095
#	46521
#	70228
#	101495
#	123870
#	130949
#	143825
#	168785
#	222114
#	235154
#	258400
#
# Disc length: 3735 seconds
#
# Revision: 0
# Processed by: cddbd v1.5.2PL0 Copyright (c) Steve Scherf et al.
# Submitted via: CDex 1.70beta2
#
DISCID=9e0e950c
DTITLE=Andy Statman - Avodas ha-Levi
DYEAR=2005
DGENRE=Jazz
TTITLE0=Reb Nachman's Deveykus Niggun/Duet
TTITLE1=Modzitzer Deveykus Niggun
TTITLE2=Breslever Lecha Dodi
TTITLE3=Lost Aisles Of KDS
TTITLE4=Mah Yedidus
TTITLE5=A Father's Brochah
TTITLE6=Badekens Niggun
TTITLE7=Lo Seivoshi
TTITLE8=Charles and West 4th
TTITLE9=Forshpiel
TTITLE10=Naftule Shpielt Far Dem Rebb'n
TTITLE11=Reb Nachman's Deveykus Niggun/Solo
EXTD=YEAR: 2005
EXTT0=
EXTT1=
EXTT2=
EXTT3=
EXTT4=
EXTT5=
EXTT6=
EXTT7=
EXTT8=
EXTT9=
EXTT10=
EXTT11=
PLAYORDER=
